<?xml version="1.0" encoding="UTF-8" standalone="no"?>
<svg
   xmlns:dc="http://purl.org/dc/elements/1.1/"
   xmlns:cc="http://creativecommons.org/ns#"
   xmlns:rdf="http://www.w3.org/1999/02/22-rdf-syntax-ns#"
   xmlns:svg="http://www.w3.org/2000/svg"
   xmlns="http://www.w3.org/2000/svg"
   xmlns:xlink="http://www.w3.org/1999/xlink"
   xmlns:sodipodi="http://sodipodi.sourceforge.net/DTD/sodipodi-0.dtd"
   xmlns:inkscape="http://www.inkscape.org/namespaces/inkscape"
   width="70"
   height="70"
   viewBox="0 0 70 70"
   version="1.1"
   id="svg103"
   sodipodi:docname="icon.svg"
   inkscape:version="0.92.5 (2060ec1f9f, 2020-04-08)">
  <metadata
     id="metadata107">
    <rdf:RDF>
      <cc:Work
         rdf:about="">
        <dc:format>image/svg+xml</dc:format>
        <dc:type
           rdf:resource="http://purl.org/dc/dcmitype/StillImage" />
        <dc:title></dc:title>
      </cc:Work>
    </rdf:RDF>
  </metadata>
  <sodipodi:namedview
     pagecolor="#ffffff"
     bordercolor="#666666"
     borderopacity="1"
     objecttolerance="10"
     gridtolerance="10"
     guidetolerance="10"
     inkscape:pageopacity="0"
     inkscape:pageshadow="2"
     inkscape:window-width="1920"
     inkscape:window-height="1016"
     id="namedview105"
     showgrid="false"
     inkscape:zoom="6.7428571"
     inkscape:cx="42.489407"
     inkscape:cy="40.932203"
     inkscape:window-x="1920"
     inkscape:window-y="27"
     inkscape:window-maximized="1"
     inkscape:current-layer="svg103" />
  <defs
     id="defs82">
    <path
       id="modules-a"
       d="M4,5.35309892e-14 C36.4160122,9.87060235e-15 58.0836068,-3.97961823e-14 65,5.07020818e-14 C69,6.733808e-14 70,1 70,5 C70,43.0488877 70,62.4235458 70,65 C70,69 69,70 65,70 C61,70 9,70 4,70 C1,70 7.10542736e-15,69 7.10542736e-15,65 C7.25721566e-15,62.4676575 3.83358709e-14,41.8005206 3.60818146e-14,5 C-1.13686838e-13,1 1,5.75716207e-14 4,5.35309892e-14 Z" />
    <linearGradient
       id="modules-c"
       x1="70"
       x2="0"
       y1="0"
       y2="70"
       gradientUnits="userSpaceOnUse">
      <stop
         offset="0%"
         stop-color="#B06161"
         id="stop75" />
      <stop
         offset="45.785%"
         stop-color="#984E4E"
         id="stop77" />
      <stop
         offset="100%"
         stop-color="#7C3838"
         id="stop79" />
    </linearGradient>
    <mask
       fill="#fff"
       id="modules-b">
      <use
         id="use84"
         xlink:href="#modules-a" />
    </mask>
  </defs>
  <rect
     width="70"
     height="70"
     id="rect87"
     style="fill:#0088aa;fill-rule:evenodd"
     x="0"
     y="0" />
  <path
     d="m 4,1 h 61 c 2.666667,0 4.333333,0.6666667 5,2 0,-2.6666667 0,-3.6666667 0,-3 H 0 C 0,-0.6666667 0,0.3333333 0,3 0.66666667,1.6666667 2,1 4,1 Z"
     id="path89"
     inkscape:connector-curvature="0"
     style="fill:#ffffff;fill-opacity:0.38299997;fill-rule:evenodd" />
  <path
     d="M 4,69 C 2,69 0,68 0,65 V 42.5 L 24.296708,19.768471 35,16 45,21 v 11 l 11,5 V 47.164277 L 38.575061,69 Z"
     id="path91"
     inkscape:connector-curvature="0"
     style="opacity:0.32400004;fill:#393939;fill-rule:evenodd" />
  <path
     d="m 4,69 h 61 c 2.666667,0 4.333333,-1 5,-3 0,2.666667 0,4 0,4 H 0 c 0,0 0,-1.333333 0,-4 0.66666667,2 2,3 4,3 z"
     id="path93"
     inkscape:connector-curvature="0"
     style="fill:#000000;fill-opacity:0.38299997;fill-rule:evenodd" />
  <path
     d="m 55.962763,37.317562 c -0.02102,-0.06041 -0.04911,-0.118487 -0.08378,-0.173182 V 37.1184 c -0.0421,-0.06039 -0.09213,-0.115653 -0.148935,-0.164523 l -0.04189,-0.03464 c -0.05311,-0.04044 -0.110862,-0.07528 -0.172207,-0.10391 h -0.02327 l -9.48997,-4.074116 V 22.125114 c -5.89e-4,-0.0746 -0.01154,-0.148818 -0.03258,-0.220808 v -0.05195 c -0.02102,-0.06041 -0.04911,-0.118486 -0.08378,-0.173182 v -0.02598 c -0.0421,-0.06039 -0.09213,-0.115653 -0.148935,-0.164523 l -0.04189,-0.03464 c -0.05311,-0.04044 -0.110862,-0.07528 -0.172207,-0.103909 h -0.02327 l -10.09037,-4.329566 c -0.24669,-0.105438 -0.530568,-0.105438 -0.777257,0 l -10.085716,4.329566 h -0.02327 c -0.06134,0.02863 -0.119098,0.06347 -0.172207,0.103909 l -0.04189,0.03464 c -0.0568,0.04887 -0.106834,0.104137 -0.148935,0.164523 v 0.02598 c -0.03467,0.0547 -0.06276,0.112772 -0.08378,0.173182 v 0.05195 c -0.02104,0.07199 -0.03199,0.146207 -0.03258,0.220808 v 10.616097 l -9.541172,4.061133 h -0.02327 c -0.06134,0.02863 -0.119097,0.06347 -0.172206,0.103909 l -0.04189,0.03464 c -0.0568,0.04887 -0.106834,0.104138 -0.148936,0.164523 v 0.02598 c -0.03467,0.0547 -0.06276,0.112772 -0.08378,0.173182 v 0.05195 c -0.02104,0.07199 -0.03199,0.146207 -0.03258,0.220808 v 11.226566 c -0.0078,0.330364 0.187203,0.636056 0.502656,0.787981 l 10.085717,4.329566 c 0.246689,0.105437 0.530567,0.105437 0.777256,0 l 9.615639,-4.130406 9.624948,4.126076 c 0.246689,0.105437 0.530567,0.105437 0.777257,0 l 10.076408,-4.325236 c 0.329942,-0.142044 0.54079,-0.449781 0.53989,-0.787981 V 37.590325 c -5.89e-4,-0.0746 -0.01154,-0.148818 -0.03258,-0.220808 z m -30.997172,3.645495 -7.865648,-3.372732 7.739984,-3.316448 7.865649,3.355414 z m 9.085057,7.321297 -8.154211,3.49396 v -9.308568 l 8.154211,-3.49396 z m 0.930846,-22.777849 -7.865648,-3.381391 7.865648,-3.372732 7.865649,3.372732 z m 0.930846,1.506689 8.228679,-3.528596 v 9.308567 l -8.228679,3.537256 z m 9.085057,13.949863 -7.744638,-3.333766 7.865648,-3.372732 7.739985,3.316448 z m 9.154871,7.28666 -8.224025,3.528597 v -9.308568 l 8.224025,-3.541585 z"
     id="path95"
     inkscape:connector-curvature="0"
     style="opacity:0.3;fill:#000000;fill-rule:nonzero" />
  <path
     d="m 55.962763,35.457076 c -0.02102,-0.06041 -0.04911,-0.118487 -0.08378,-0.173183 v -0.02598 c -0.0421,-0.06039 -0.09213,-0.115654 -0.148935,-0.164524 l -0.04189,-0.03464 c -0.05311,-0.04044 -0.110862,-0.07528 -0.172207,-0.103909 h -0.02327 l -9.48997,-4.074116 V 20.264628 c -5.89e-4,-0.0746 -0.01154,-0.148819 -0.03258,-0.220808 v -0.05195 c -0.02102,-0.06041 -0.04911,-0.118487 -0.08378,-0.173183 v -0.02598 c -0.0421,-0.06039 -0.09213,-0.115654 -0.148935,-0.164524 l -0.04189,-0.03464 c -0.05311,-0.04044 -0.110862,-0.07528 -0.172207,-0.10391 h -0.02327 l -10.09037,-4.329566 c -0.24669,-0.105437 -0.530568,-0.105437 -0.777257,0 l -10.085716,4.329566 h -0.02327 c -0.06134,0.02863 -0.119098,0.06347 -0.172207,0.10391 l -0.04189,0.03464 c -0.0568,0.04887 -0.106834,0.104138 -0.148935,0.164524 v 0.02598 c -0.03467,0.0547 -0.06276,0.112773 -0.08378,0.173183 v 0.05195 c -0.02104,0.07199 -0.03199,0.146207 -0.03258,0.220808 v 10.616096 l -9.541172,4.061133 h -0.02327 c -0.06134,0.02863 -0.119097,0.06347 -0.172206,0.10391 l -0.04189,0.03464 c -0.0568,0.04887 -0.106834,0.104138 -0.148936,0.164524 v 0.02598 c -0.03467,0.0547 -0.06276,0.112773 -0.08378,0.173183 v 0.05195 c -0.02104,0.07199 -0.03199,0.146207 -0.03258,0.220808 v 11.226565 c -0.0078,0.330364 0.187203,0.636056 0.502656,0.787981 l 10.085717,4.329566 c 0.246689,0.105437 0.530567,0.105437 0.777256,0 l 9.615639,-4.130406 9.624948,4.126077 c 0.246689,0.105437 0.530567,0.105437 0.777257,0 l 10.076408,-4.325237 c 0.329942,-0.142044 0.54079,-0.449781 0.53989,-0.787981 V 35.729838 c -5.89e-4,-0.0746 -0.01154,-0.148818 -0.03258,-0.220808 z m -30.997172,3.645494 -7.865648,-3.372732 7.739984,-3.316448 7.865649,3.355414 z m 9.085057,7.321297 -8.154211,3.49396 v -9.308568 l 8.154211,-3.49396 z m 0.930846,-22.777848 -7.865648,-3.381391 7.865648,-3.372733 7.865649,3.372733 z m 0.930846,1.506689 8.228679,-3.528597 v 9.308568 l -8.228679,3.537255 z m 9.085057,13.949862 -7.744638,-3.333766 7.865648,-3.372732 7.739985,3.316448 z m 9.154871,7.28666 -8.224025,3.528597 v -9.308568 l 8.224025,-3.541585 z"
     id="path97"
     inkscape:connector-curvature="0"
     style="fill:#ffffff;fill-rule:nonzero" />
</svg>
